<svg xmlns="http://www.w3.org/2000/svg" viewBox="0 0 1008.7 1146.25"><defs><style>.cls-1{fill:none;stroke:#67728b;stroke-miterlimit:10;stroke-width:29.78px;}</style></defs><title>Asset 3</title><g id="Layer_2" data-name="Layer 2"><g id="Capa_1" data-name="Capa 1"><g id="_Group_" data-name="&lt;Group&gt;"><path id="_Path_" data-name="&lt;Path&gt;" class="cls-1" d="M379.73,327.81c61.54-8,99.8-104.42,88.64-190.56S400.9,7.86,339.37,15.82s-105,64.11-93.85,150.26S318.19,335.77,379.73,327.81Z"/><path id="_Path_2" data-name="&lt;Path&gt;" class="cls-1" d="M214.54,284.28c-35.52-65.9-96.69-82-146.88-54.91s-70.36,87-34.84,152.89S146.14,495.05,196.33,468,250.07,350.16,214.54,284.28Z"/></g><path id="_Path_3" data-name="&lt;Path&gt;" class="cls-1" d="M629,327.81c-61.54-8-99.77-104.42-88.64-190.56S607.8,7.86,669.34,15.82s105,64.11,93.84,150.26S690.51,335.77,629,327.81Z"/><path id="_Path_4" data-name="&lt;Path&gt;" class="cls-1" d="M794.17,284.28c35.53-65.9,96.68-82,146.87-54.91s70.37,87,34.85,152.89S862.56,495.05,812.38,468,758.63,350.16,794.17,284.28Z"/><path class="cls-1" d="M622.72,965.45c74-60.21,136.76-158.28,79.16-272.62-47-93.28-161.28-68.74-197.61-12.51C468,624.09,353.66,599.55,306.68,692.83c-58.48,116.09,8.2,214.33,83,275.08,53.71,43.61,158.12,116.81,222.42,142.33,63.85,25.35,126.13,31.11,182.12-2.3,136.76-81.61,156.85-299.87,44.89-487.5-75.58-126.66-192-206.88-301.72-220.62l-.58-.06c-3.57-.45-7.14-.81-10.71-1.12-2.29-.2-4.59-.38-6.9-.52s-4.76-.22-7.13-.29q-3.86-.15-7.74-.15t-7.73.15c-2.38.07-4.75.16-7.13.29s-4.61.32-6.91.52c-3.57.31-7.14.67-10.7,1.12l-.58.06c-109.74,13.74-226.15,94-301.73,220.62-112,187.63-91.86,405.89,44.89,487.5,58.27,34.77,123.39,27.32,190.36.52C468.23,1083.08,569.74,1008.56,622.72,965.45Z"/></g></g></svg>