<svg xmlns="http://www.w3.org/2000/svg" viewBox="0 0 634.39 719.34"><defs><style>.cls-1{fill:none;stroke:#f4f4f4;stroke-miterlimit:10;stroke-width:29.78px;}</style></defs><title>Asset 5</title><g id="Layer_2" data-name="Layer 2"><g id="Capa_1" data-name="Capa 1"><g id="_Group_" data-name="&lt;Group&gt;"><path id="_Path_" data-name="&lt;Path&gt;" class="cls-1" d="M240.23,208.16c38-4.92,61.63-64.49,54.74-117.7s-41.67-79.91-79.67-75-64.85,39.59-58,92.8S202.22,213.07,240.23,208.16Z"/><path id="_Path_2" data-name="&lt;Path&gt;" class="cls-1" d="M138.2,181.27c-21.94-40.7-59.72-50.62-90.72-33.91S4,201.09,26,241.79s70,69.66,101,53S160.14,222,138.2,181.27Z"/></g><path id="_Path_3" data-name="&lt;Path&gt;" class="cls-1" d="M394.17,208.16c-38-4.92-61.63-64.49-54.75-117.7s41.67-79.91,79.67-75,64.85,39.59,58,92.8S432.17,213.07,394.17,208.16Z"/><path id="_Path_4" data-name="&lt;Path&gt;" class="cls-1" d="M496.19,181.27c21.95-40.7,59.72-50.62,90.72-33.91s43.46,53.73,21.52,94.43-70,69.66-101,53S474.25,222,496.19,181.27Z"/><path class="cls-1" d="M390.3,602c45.7-37.19,84.47-97.75,48.9-168.38-29-57.61-99.62-42.45-122-7.72-22.43-34.73-93-49.89-122,7.72C159,505.3,200.17,566,246.38,603.5c33.17,26.93,97.66,72.14,137.38,87.91,39.43,15.66,77.9,19.21,112.48-1.42C580.7,639.58,593.11,504.78,524,388.9c-46.68-78.23-118.58-127.78-186.35-136.27l-.36,0c-2.2-.28-4.41-.51-6.61-.7-1.42-.12-2.83-.23-4.26-.32s-2.94-.13-4.4-.18-3.19-.09-4.78-.09-3.2,0-4.78.09-2.94.1-4.41.18-2.84.2-4.26.32c-2.2.19-4.41.42-6.61.7l-.36,0c-67.77,8.49-139.68,58-186.35,136.27C41.28,504.78,53.69,639.58,138.15,690c36,21.47,76.21,16.87,117.57.32C294.89,674.64,357.58,628.61,390.3,602Z"/></g></g></svg>