<svg id="Capa_1" data-name="Capa 1" xmlns="http://www.w3.org/2000/svg" viewBox="0 0 512 512"><defs><style>.cls-1{fill:#fff;}</style></defs><title>community</title><path class="cls-1" d="M109.83,496.21,94.78,475a10,10,0,0,0-16.31,11.58l15.06,21.21a10,10,0,1,0,16.3-11.58Z" transform="translate(0)"/><path class="cls-1" d="M225.21,500l-16.39-78.09a147.32,147.32,0,0,0-62.28-92.46l-35-23.52A35.2,35.2,0,0,0,67,310.43V189.94a33.47,33.47,0,0,0-54.42-26.11A33.31,33.31,0,0,0,0,189.94V345a96.85,96.85,0,0,0,18,56.37l17.83,25.12A10,10,0,1,0,52.12,414.9L34.28,389.78A77,77,0,0,1,20,345v-155a13.48,13.48,0,1,1,27,0V313a69.89,69.89,0,0,0,18,46.92c.5.59,1,1.18,1.55,1.76,6.65,7,14.45,15.33,21.81,23.14l10.29,11,.11.1c8.8,9.37,15.3,16.28,15.43,16.43a10,10,0,0,0,14.58-13.69L103.49,371.7,80.56,347.29l-.17-.18A16.88,16.88,0,0,1,80.71,325a15.12,15.12,0,0,1,19.69-2.51l35,23.52a127.37,127.37,0,0,1,53.87,80l16.38,78.09a10,10,0,0,0,9.78,7.95,10.36,10.36,0,0,0,2.06-.21A10,10,0,0,0,225.21,500Z" transform="translate(0)"/><path class="cls-1" d="M74.09,445.86l-.07-.09a10,10,0,0,0-16.28,11.61l.07.09a10,10,0,1,0,16.28-11.61Z" transform="translate(0)"/><path class="cls-1" d="M499.48,163.83a33.48,33.48,0,0,0-54.43,26.11V310.43a35.2,35.2,0,0,0-44.61-4.55l-35,23.52a147.32,147.32,0,0,0-62.28,92.46L286.8,500a10,10,0,0,0,7.73,11.84,10.36,10.36,0,0,0,2.06.21,10,10,0,0,0,9.78-7.95L322.75,426a127.34,127.34,0,0,1,53.87-80l35-23.52A15.11,15.11,0,0,1,431.29,325a16.86,16.86,0,0,1,.34,22.09l-.18.21-48.19,51.28a10,10,0,0,0,14.58,13.69c.13-.15,41-43.59,47.64-50.63.54-.57,1-1.17,1.55-1.76a69.89,69.89,0,0,0,18-46.91v-123a13.48,13.48,0,1,1,26.95,0V345a77,77,0,0,1-14.28,44.79L402.17,496.21a10,10,0,0,0,16.31,11.58L494,401.36A96.85,96.85,0,0,0,512,345v-155A33.34,33.34,0,0,0,499.48,163.83Z" transform="translate(0)"/><path class="cls-1" d="M382.66,191.66l-17.79-4.25v-3.19A44.73,44.73,0,0,0,384,147.55V124.42a44.72,44.72,0,0,0-73.79-34A58.39,58.39,0,0,0,202,90.48a44.72,44.72,0,0,0-73.89,33.94v23.13a44.73,44.73,0,0,0,19.15,36.67v3.19l-17.79,4.25a46.84,46.84,0,0,0-36.08,45.71v18.68a10,10,0,0,0,10,10h46c-.07,1.21-.12,2.43-.12,3.66v36a10,10,0,0,0,10,10h60.11a10,10,0,0,0,0-20H209V275a10,10,0,0,0-20,0v20.67H169.22v-26a41.4,41.4,0,0,1,31.86-40.39l27.44-6.58,18.36,41.78a10,10,0,0,0,9.16,6h0a10,10,0,0,0,9.15-6l18.35-41.72,27.35,6.53a41.41,41.41,0,0,1,31.89,40.4v25.93H323V275a10,10,0,0,0-20,0v20.67H291.67a10,10,0,0,0,0,20h61.11a10,10,0,0,0,10-10V269.74c0-1.24,0-2.47-.13-3.69h46.09a10,10,0,0,0,10-10V237.37A46.84,46.84,0,0,0,382.66,191.66Zm-43.4-92A24.79,24.79,0,0,1,364,122.79H350.05a72.83,72.83,0,0,1-33.52-8.18A24.78,24.78,0,0,1,339.26,99.66ZM314.5,146.09c0-.49,0-1,0-1.46v-8.91a92.92,92.92,0,0,0,35.51,7.06h14v4.77a24.76,24.76,0,0,1-49.51,0Zm-96.78-33.68h0a38.41,38.41,0,0,1,76.33-6.1l-16.83-9.89a10,10,0,0,0-12.73,2.19,43.08,43.08,0,0,1-33.11,15.45H217.72v-1.65ZM172.87,99.66a24.8,24.8,0,0,1,22.73,15,72.86,72.86,0,0,1-33.53,8.17h-13.9A24.78,24.78,0,0,1,172.87,99.66Zm-24.75,43.12h13.95a92.77,92.77,0,0,0,35.56-7.08v11.85a24.76,24.76,0,0,1-49.51,0v-4.77Zm48.3,67.09a61.31,61.31,0,0,0-42.5,36.18H113.39v-8.68a26.91,26.91,0,0,1,20.73-26.26L159.58,205a10,10,0,0,0,7.68-9.73v-3.36a45.18,45.18,0,0,0,5.61.36,44.41,44.41,0,0,0,5.57-.36v2.86c0,.15,0,.3,0,.44a10,10,0,0,0,8.13,9.84l14.91,3.58Zm27.89-15.52a46.29,46.29,0,0,0-8-2.7l-17.86-4.29v-3.11a45.62,45.62,0,0,0,8.67-7.92,58.76,58.76,0,0,0,17.2,17.24v.78ZM267.74,209,256,235.65,244.31,209v-7.14a58.26,58.26,0,0,0,23.43,0Zm-11.61-26a38.45,38.45,0,0,1-38.41-38.41V134.06h13.67a63,63,0,0,0,42.49-16.41l20.62,12.11v16.33A38.45,38.45,0,0,1,256.13,183Zm31.61,11.34v-.68a58.84,58.84,0,0,0,17.35-17.29,45,45,0,0,0,8.59,7.84v3.11l-17.86,4.29A46.28,46.28,0,0,0,287.74,194.38Zm111,51.67H358.07a61.31,61.31,0,0,0-42.53-36.16l-5-1.2,15-3.59a10.06,10.06,0,0,0,8.17-9.85,1.93,1.93,0,0,0,0-.24v-3.07a44.66,44.66,0,0,0,5.57.36,45.22,45.22,0,0,0,5.62-.36v3.36a10,10,0,0,0,7.67,9.73L378,211.11a26.92,26.92,0,0,1,20.73,26.26v8.68Z" transform="translate(0)"/><path class="cls-1" d="M263.07,298.59a10,10,0,1,0,2.93,7.08A10.08,10.08,0,0,0,263.07,298.59Z" transform="translate(0)"/><path class="cls-1" d="M256,0a10,10,0,0,0-10,10V25a10,10,0,0,0,20,0V10A10,10,0,0,0,256,0Z" transform="translate(0)"/><path class="cls-1" d="M219.16,32.62,208.67,22.14a10,10,0,1,0-14.14,14.15L205,46.77a10,10,0,0,0,14.14-14.15Z" transform="translate(0)"/><path class="cls-1" d="M317.22,22.4a10,10,0,0,0-14.14,0L292.67,32.82A10,10,0,0,0,306.82,47l10.41-10.42A10,10,0,0,0,317.22,22.4Z" transform="translate(0)"/></svg>