<svg id="Capa_1" data-name="Capa 1" xmlns="http://www.w3.org/2000/svg" viewBox="0 0 512 465.08"><defs><style>.cls-1{fill:#fff;}</style></defs><title>Partner</title><path class="cls-1" d="M509,355.86l-24.41-24.21a10,10,0,0,0-14.08,14.21L495,370.07A10,10,0,1,0,509,355.86Z" transform="translate(0 -23.46)"/><path class="cls-1" d="M459.76,306.88a10,10,0,0,0-14.14,0l0,0a10,10,0,1,0,14.16,0Z" transform="translate(0 -23.46)"/><path class="cls-1" d="M374.49,353l97-97a37.67,37.67,0,0,0-18.18-63.36,37.69,37.69,0,0,0-27.78-53A37.64,37.64,0,0,0,396.2,90.66a37.7,37.7,0,0,0-53.79-44.95l-1-1a66.76,66.76,0,0,0-48.71-21.21H214.2a10,10,0,0,0-10,10V46.58a45.59,45.59,0,0,0,2.58,15.16,37.7,37.7,0,0,0-50.23,46.66,37.68,37.68,0,0,0-29.4,48.92,37.7,37.7,0,0,0-27.76,53,37.69,37.69,0,0,0-18.18,63.38l20,20L2.93,391.89A10,10,0,1,0,17.07,406l99.18-99.18a37.68,37.68,0,0,0,56.27-34.3c.51,0,1,0,1.52,0a37.66,37.66,0,0,0,37.69-37.67c0-.51,0-1,0-1.52.5,0,1,0,1.51,0a37.66,37.66,0,0,0,37.69-37.67c0-.51,0-1,0-1.52.5,0,1,0,1.5,0a37.68,37.68,0,0,0,29.15-61.57l66.4-66.39a17.68,17.68,0,1,1,25,25l-9.79,9.79L327.6,136.65a10,10,0,0,0,14.15,14.14l35.52-35.51a17.68,17.68,0,1,1,25,25l-9.79,9.79-25.73,25.73A10,10,0,1,0,380.9,190l25.73-25.73a17.69,17.69,0,1,1,25,25l-13.43,13.43L405.92,215a10,10,0,1,0,14.14,14.15l12.3-12.3a17.68,17.68,0,0,1,25,25l-97,97a135.54,135.54,0,0,1-91.18,39.72,10,10,0,0,0-6.72,2.94l-89.64,90A10,10,0,0,0,187,485.6l65.93-66.17A93,93,0,0,0,309.37,434L361,485.56a10,10,0,0,0,14.15-14.15l-54.86-54.87a10,10,0,0,0-7.89-2.89l-3.17.26a73,73,0,0,1-41.74-9.09l6.43-6.45A155.36,155.36,0,0,0,374.49,353Zm-227.1-66.41a17.68,17.68,0,0,1-25,0l-27-27a17.69,17.69,0,0,1,25-25l27,27A17.7,17.7,0,0,1,147.39,286.59Zm39.16-39.16a17.7,17.7,0,0,1-25,0l-27-27L121.07,207a17.7,17.7,0,0,1,12.51-30.2,17.53,17.53,0,0,1,12.5,5.19l40.47,40.46h0a17.68,17.68,0,0,1,0,25Zm39.16-39.16a17.71,17.71,0,0,1-25,0L150.44,158a17.68,17.68,0,0,1,25-25l22.91,22.9,27.35,27.36h0a17.71,17.71,0,0,1,0,25Zm39.15-39.15a17.71,17.71,0,0,1-25,0L189.6,118.86h0l-9.77-9.78a17.68,17.68,0,0,1,25-25l60,60a17.7,17.7,0,0,1,0,25Zm2.63-50.68L240,91a45.55,45.55,0,0,0,9.58,1h.22l27.45-.13a10,10,0,0,0,0-20h-.05L249.73,72h-.13a25.4,25.4,0,0,1-25.4-25.41V43.47h68.54A46.66,46.66,0,0,1,326.8,58.3l.41.43Z" transform="translate(0 -23.46)"/></svg>