<svg id="Capa_1" data-name="Capa 1" xmlns="http://www.w3.org/2000/svg" viewBox="0 0 452.14 512"><defs><style>.cls-1{fill:#fff;}</style></defs><title>rewards</title><path class="cls-1" d="M336,160.83a10,10,0,0,0-8.07-6.81l-43.51-6.31L265,108.3a10,10,0,0,0-9-5.57h0a10,10,0,0,0-9,5.58l-19.45,39.42-43.5,6.33a10,10,0,0,0-5.53,17.06L210,201.8l-7.42,43.32a10,10,0,0,0,14.51,10.54L256,235.2l38.91,20.44a10,10,0,0,0,14.51-10.54L302,201.77l31.47-30.69A10,10,0,0,0,336,160.83Zm-51.72,30.3a10,10,0,0,0-2.88,8.85l4.91,28.53-25.64-13.46a10,10,0,0,0-9.3,0l-25.63,13.48L230.62,200a10,10,0,0,0-2.88-8.85L207,170.94l28.66-4.18a10,10,0,0,0,7.52-5.47l12.81-26,12.82,26a10,10,0,0,0,7.53,5.46L305,170.91Z" transform="translate(-29.93 0)"/><path class="cls-1" d="M480.74,439.37,398.08,295.6A181.07,181.07,0,0,0,438,182C438,81.65,356.36,0,256,0S74,81.65,74,182a181.12,181.12,0,0,0,39.91,113.6L31.26,439.37a10,10,0,0,0,10,14.9l64.51-8.67,24.76,60.2a10,10,0,0,0,8.58,6.18l.67,0a10,10,0,0,0,8.65-5l83.45-144.53,0-.07a182.15,182.15,0,0,0,48.18,0l0,.07L363.57,507a10,10,0,0,0,8.66,5l.67,0a10,10,0,0,0,8.58-6.18l24.75-60.2,64.52,8.67a10,10,0,0,0,10-14.9Zm-339.46,40-18-43.82,16.18-26.39a10,10,0,0,0-17.06-10.45L106,425.39l-47.33,6.35L128,311.24a181.93,181.93,0,0,0,83.14,47.16ZM256,344c-89.33,0-162-72.67-162-162S166.67,20,256,20,418,92.67,418,182,345.33,344,256,344Zm150,81.39-16.35-26.67a10,10,0,1,0-17.05,10.45l16.17,26.39-18,43.82-69.85-121A181.91,181.91,0,0,0,384,311.24l69.28,120.5Z" transform="translate(-29.93 0)"/><path class="cls-1" d="M256,52a130,130,0,0,0-63.67,16.64,10,10,0,0,0,9.8,17.43,110,110,0,0,1,153.2,143.26A10,10,0,0,0,373.38,238,128.92,128.92,0,0,0,386,182C386,110.32,327.68,52,256,52Z" transform="translate(-29.93 0)"/><path class="cls-1" d="M349.05,258.42a10,10,0,0,0-14.14.22l-.22.22a10,10,0,0,0,14.31,14l.26-.28A10,10,0,0,0,349.05,258.42Z" transform="translate(-29.93 0)"/><path class="cls-1" d="M322.59,282.35A10,10,0,0,0,309,278.41a110,110,0,0,1-153.16-142,10,10,0,0,0-18.2-8.29A128.9,128.9,0,0,0,126,182c0,71.68,58.32,130,130,130a130.2,130.2,0,0,0,62.66-16.07A10,10,0,0,0,322.59,282.35Z" transform="translate(-29.93 0)"/><path class="cls-1" d="M175,92.9a10,10,0,0,0-14.13.5l-.23.24a10,10,0,0,0,14.69,13.58l.17-.19A10,10,0,0,0,175,92.9Z" transform="translate(-29.93 0)"/></svg>