<svg id="Layer_1" data-name="Layer 1" xmlns="http://www.w3.org/2000/svg" viewBox="0 0 462.45 512"><defs><style>.cls-1{fill:#fff;}</style></defs><title>sustainbility</title><path class="cls-1" d="M454.19,82.58a33.07,33.07,0,0,0-33,33v104.5L404,242a24.8,24.8,0,0,0-24.1-19h-1.08a24.85,24.85,0,0,0-18.11,7.87L258.85,339.94a39.93,39.93,0,0,0-2.85,3.69,39.93,39.93,0,0,0-2.85-3.69L151.32,230.84A24.85,24.85,0,0,0,133.21,223h-1.08A24.79,24.79,0,0,0,108,242L90.84,220.11V115.61a33,33,0,0,0-66.07,0V256a8.33,8.33,0,0,0,1,4l49.55,90.83a8.7,8.7,0,0,0,1.41,1.89l64.66,64.65a25,25,0,0,1,7.25,17.52v68.89A8.26,8.26,0,0,0,156.9,512H355.1a8.26,8.26,0,0,0,8.25-8.26V434.85a25,25,0,0,1,7.25-17.52l64.66-64.65a8.7,8.7,0,0,0,1.41-1.89L486.22,260a8.33,8.33,0,0,0,1-4V115.61A33.07,33.07,0,0,0,454.19,82.58ZM153.07,405.65,89.26,341.84l-48-87.94V115.61a16.52,16.52,0,0,1,33,0V223a8.23,8.23,0,0,0,1.77,5.1l90.84,115.62,13-10.21-56-71.33V247.74a8.28,8.28,0,0,1,8.26-8.26h1.08a8.32,8.32,0,0,1,6,2.62L241.08,351.21a24.72,24.72,0,0,1,6.66,16.91v94.33H165.16v-27.6A41,41,0,0,0,153.07,405.65ZM165.16,479h82.58v16.51H165.16Zm99.1,16.51V479h82.58v16.51ZM470.71,253.9l-48,87.93-63.81,63.82a41,41,0,0,0-12.09,29.2v27.6H264.26V368.12a24.72,24.72,0,0,1,6.66-16.91l101.84-109.1a8.26,8.26,0,0,1,6-2.63h1.08a8.28,8.28,0,0,1,8.26,8.26v14.41l-56,71.33,13,10.2,90.84-115.62a8.18,8.18,0,0,0,1.77-5.09V115.61a16.52,16.52,0,0,1,33,0Z" transform="translate(-24.77)"/><path class="cls-1" d="M256,264.26c72.85,0,132.13-59.28,132.13-132.13S328.85,0,256,0,123.87,59.28,123.87,132.13,183.15,264.26,256,264.26Zm0-16.52A115.75,115.75,0,0,1,141,143.25l19.37-19.38h13.1a8.26,8.26,0,0,0,5.84-2.42l14.09-14.1h13.1a8.23,8.23,0,0,0,5.84-2.41l33-33a8.24,8.24,0,0,0,2.42-5.84V53l14.1-14.1A8.24,8.24,0,0,0,264.26,33V16.94a114.81,114.81,0,0,1,41.29,10.89v18.3l-14.1,14.1A8.22,8.22,0,0,0,289,66.06v13.1l-14.09,14.1a8.2,8.2,0,0,0-2.42,5.84v16.51a8.2,8.2,0,0,0,2.42,5.84L289,135.55v13.1a8.23,8.23,0,0,0,2.42,5.83L308,171a8.24,8.24,0,0,0,5.84,2.42H326.9l24.24,24.24A115.54,115.54,0,0,1,256,247.74ZM371.61,132.13a114.74,114.74,0,0,1-11.89,50.75l-23.56-23.56a8.24,8.24,0,0,0-5.84-2.42H317.23l-11.68-11.67v-13.1a8.24,8.24,0,0,0-2.42-5.84L289,112.19v-9.67l14.1-14.1a8.26,8.26,0,0,0,2.42-5.84V69.48l14.1-14.09a8.25,8.25,0,0,0,2.41-5.84V37.38A115.48,115.48,0,0,1,371.61,132.13ZM247.74,16.94V29.61l-14.09,14.1a8.2,8.2,0,0,0-2.42,5.84v13.1L203,90.84H189.94a8.24,8.24,0,0,0-5.84,2.42L170,107.35H156.9a8.26,8.26,0,0,0-5.84,2.42l-10,10A115.7,115.7,0,0,1,247.74,16.94Z" transform="translate(-24.77)"/><path class="cls-1" d="M272.52,170V148.65a8.24,8.24,0,0,0-2.42-5.84l-16.52-16.52a8.24,8.24,0,0,0-5.84-2.42H231.23a8.24,8.24,0,0,0-5.84,2.42l-14.1,14.1H181.68a8.26,8.26,0,0,0-8.26,8.26v41.29a8.26,8.26,0,0,0,8.26,8.25h13.09l14.1,14.1a8.26,8.26,0,0,0,5.84,2.42h13.1l14.09,14.1a8.26,8.26,0,0,0,5.84,2.42h16.52a8.26,8.26,0,0,0,5.84-2.42l16.51-16.52a8.2,8.2,0,0,0,2.42-5.84V189.94a8.2,8.2,0,0,0-2.42-5.84Zm0,33-11.68,11.68h-9.68l-14.1-14.1a8.22,8.22,0,0,0-5.83-2.42h-13.1L204,184.1a8.2,8.2,0,0,0-5.84-2.42h-8.25V156.9h24.77a8.22,8.22,0,0,0,5.84-2.42l14.1-14.09h9.67L256,152.06v21.36a8.26,8.26,0,0,0,2.42,5.84l14.1,14.09Z" transform="translate(-24.77)"/></svg>